<?xml version="1.0" encoding="UTF-8" standalone="no"?>
<!-- Created with Inkscape (http://www.inkscape.org/) -->

<svg
   width="19.050001mm"
   height="17.462536mm"
   viewBox="0 0 19.050001 17.462536"
   version="1.1"
   id="svg1"
   xml:space="preserve"
   xmlns="http://www.w3.org/2000/svg"
   xmlns:svg="http://www.w3.org/2000/svg"><defs
     id="defs1" /><g
     id="layer1"
     transform="translate(31.318563,-11.522075)"><g
       style="display:inline;fill:none"
       id="g6"
       transform="matrix(0.26458416,0,0,0.26458416,-31.318563,11.367724)"><path
         fill-rule="evenodd"
         clip-rule="evenodd"
         d="M 31.5033,65.7742 1.89184,52.1805 c -2.522455,-1.1868 -2.522455,-3.0209 0,-4.0997 L 12.201,43.3337 31.3936,52.1805 c 2.5225,1.1867 6.5804,1.1867 8.9932,0 l 19.1926,-8.8468 10.3092,4.7471 c 2.5224,1.1867 2.5224,3.0208 0,4.0997 L 40.2771,65.7742 c -2.3031,1.0788 -6.361,1.0788 -8.7738,0 z"
         fill="url(#paint0_linear)"
         id="path4"
         style="opacity:1;fill:#ffffff;fill-opacity:1" /><path
         fill-rule="evenodd"
         clip-rule="evenodd"
         d="M 31.5033,49.0516 1.89184,35.4578 c -2.522455,-1.1867 -2.522455,-3.0208 0,-4.0997 L 11.9817,26.719 31.5033,35.6736 c 2.5225,1.1867 6.5803,1.1867 8.9931,0 l 19.5217,-8.9546 10.0898,4.6391 c 2.5225,1.1868 2.5225,3.0209 0,4.0997 L 40.4964,49.0516 c -2.5224,1.1867 -6.5803,1.1867 -8.9931,0 z"
         fill="url(#paint1_linear)"
         id="path5"
         style="fill:#8bb725;fill-opacity:1" /><path
         fill-rule="evenodd"
         clip-rule="evenodd"
         d="M 31.5033,32.7606 1.89184,19.1669 c -2.522455,-1.1868 -2.522455,-3.0209 0,-4.0997 L 31.5033,1.47344 c 2.5225,-1.186755 6.5803,-1.186755 8.9931,0 L 70.1079,15.0672 c 2.5225,1.1867 2.5225,3.0208 0,4.0997 L 40.4964,32.7606 c -2.5224,1.0789 -6.5803,1.0789 -8.9931,0 z"
         fill="url(#paint2_linear)"
         id="path6"
         style="opacity:1;fill:#ffffff;fill-opacity:1" /></g></g></svg>
